<?xml version="1.0"?>
<!--Icons from directory ""-->
<svg xmlns="http://www.w3.org/2000/svg" width="80" height="240" viewBox="0 0 80 240"><svg xmlns:xlink="http://www.w3.org/1999/xlink" height="80" width="80" version="1.1" viewBox="2240 10 80 80" id="email" y="0"><desc>Created with Sketch.</desc><g id="email-Subscribe" fill-rule="evenodd" transform="translate(2240 10)" fill="none"><g id="email-Page-1" transform="translate(19 18)"><g fill="#000"><path id="email-Fill-1" d="m34.329 31.13c-0.168 0-0.333-0.059-0.468-0.185l-7.864-7.329c-0.273-0.26-0.287-0.684-0.034-0.963 0.261-0.272 0.695-0.285 0.969-0.025l7.87 7.329c0.274 0.258 0.287 0.689 0.028 0.961-0.134 0.141-0.315 0.212-0.501 0.212"/><path id="email-Fill-3" d="m8.072 31.13c-0.188 0-0.3674-0.071-0.5007-0.212-0.2615-0.272-0.2478-0.703 0.0256-0.961l7.8721-7.329c0.28-0.26 0.714-0.247 0.967 0.025 0.262 0.279 0.248 0.703-0.025 0.963l-7.8724 7.329c-0.1333 0.126-0.3008 0.185-0.4666 0.185"/><path id="email-Fill-5" d="m3.4182 9.3602c-1.128 0-2.0492 0.9148-2.0492 2.0358v23.157c0 1.128 0.9212 2.036 2.0492 2.036h35.565c1.134 0 2.049-0.908 2.049-2.036v-23.157c0-1.121-0.915-2.0358-2.049-2.0358h-35.565zm35.565 28.59h-35.565c-1.8832 0-3.418-1.518-3.418-3.397v-23.157c0-1.8694 1.5348-3.396 3.4182-3.396h35.565c1.881 0 3.418 1.5266 3.418 3.396v23.157c0 1.879-1.537 3.397-3.418 3.397z"/><path id="email-Fill-7" d="m21.203 26.389c-0.914 0-1.822-0.299-2.509-0.897l-17.559-15.217c-0.28729-0.244-0.31464-0.6754-0.0668-0.9607 0.2478-0.2852 0.6802-0.3056 0.9673-0.0662l17.552 15.217c0.875 0.756 2.35 0.756 3.225 0l17.53-15.191c0.287-0.2449 0.714-0.2195 0.969 0.0658 0.246 0.2853 0.221 0.7102-0.067 0.9562l-17.531 15.189c-0.694 0.605-1.602 0.904-2.511 0.904"/></g><polygon id="email-Rectangle-14" points="25 17 25 7 44 7 44 24 32 24 32 17" fill="#fff"/><rect id="email-Rectangle-5" height="2" width="16" y="7" x="33" fill="#000"/><rect id="email-Rectangle-5" height="16" width="2" y="0" x="40" fill="#000"/></g></g><desc>Created with Sketch.</desc><g id="email-Search" fill-rule="evenodd" transform="translate(2440 10)" fill="none"><path id="email-Page-1" fill="#000" d="m26.903 38.701c0-6.451 5.248-11.692 11.692-11.692 6.451 0 11.692 5.248 11.692 11.692s-5.241 11.699-11.692 11.699c-6.444 0-11.692-5.248-11.692-11.699m29.715 16.672l-7.752-7.752c2.079-2.391 3.338-5.511 3.338-8.92 0-7.505-6.104-13.602-13.602-13.602-7.505 0-13.602 6.104-13.602 13.602s6.104 13.602 13.602 13.602c3.409 0 6.529-1.259 8.92-3.338l7.752 7.752c0.184 0.184 0.432 0.283 0.672 0.283s0.488-0.092 0.672-0.283c0.368-0.368 0.368-0.976 0-1.344"/></g><desc>Created with Sketch.</desc><g id="email-Share" fill-rule="evenodd" transform="translate(2490 10)" fill="none"><path id="email-Page-1" fill="#000" d="m48.438 54.199c-2.166 0-3.926-1.761-3.926-3.927s1.76-3.927 3.926-3.927c2.167 0 3.927 1.761 3.927 3.927s-1.76 3.927-3.927 3.927m-18.71-10.279c-2.167 0-3.927-1.76-3.927-3.927 0-2.166 1.76-3.927 3.927-3.927 2.166 0 3.926 1.761 3.926 3.927 0 2.167-1.767 3.927-3.926 3.927m18.71-18.119c2.167 0 3.927 1.76 3.927 3.927 0 2.166-1.76 3.926-3.927 3.926-2.166 0-3.926-1.76-3.926-3.926 0-2.167 1.767-3.927 3.926-3.927m0 18.757c-1.84 0-3.481 0.877-4.531 2.232l-8.791-4.91c0.206-0.591 0.319-1.229 0.319-1.887 0-0.664-0.113-1.295-0.325-1.893l8.784-4.904c1.043 1.362 2.691 2.246 4.538 2.246 3.149 0 5.721-2.565 5.721-5.721s-2.565-5.721-5.721-5.721-5.721 2.565-5.721 5.721c0 0.664 0.113 1.302 0.325 1.894l-8.777 4.903c-1.043-1.369-2.691-2.246-4.538-2.246-3.149 0-5.721 2.565-5.721 5.721s2.572 5.721 5.728 5.721c1.847 0 3.494-0.883 4.544-2.252l8.785 4.91c-0.213 0.598-0.333 1.242-0.333 1.907 0 3.149 2.565 5.721 5.721 5.721s5.721-2.565 5.721-5.721-2.572-5.721-5.728-5.721"/></g></svg><svg xmlns:xlink="http://www.w3.org/1999/xlink" height="80" width="80" version="1.1" viewBox="2440 10 80 80" id="search" y="80"><desc>Created with Sketch.</desc><g id="search-Search" fill-rule="evenodd" transform="translate(2440 10)" fill="none"><path id="search-Page-1" fill="#000" d="m26.903 38.701c0-6.451 5.248-11.692 11.692-11.692 6.451 0 11.692 5.248 11.692 11.692s-5.241 11.699-11.692 11.699c-6.444 0-11.692-5.248-11.692-11.699m29.715 16.672l-7.752-7.752c2.079-2.391 3.338-5.511 3.338-8.92 0-7.505-6.104-13.602-13.602-13.602-7.505 0-13.602 6.104-13.602 13.602s6.104 13.602 13.602 13.602c3.409 0 6.529-1.259 8.92-3.338l7.752 7.752c0.184 0.184 0.432 0.283 0.672 0.283s0.488-0.092 0.672-0.283c0.368-0.368 0.368-0.976 0-1.344"/></g></svg><svg xmlns:xlink="http://www.w3.org/1999/xlink" height="80" width="80" version="1.1" viewBox="2490 10 80 80" id="share" y="160"><desc>Created with Sketch.</desc><g id="share-Share" fill-rule="evenodd" transform="translate(2490 10)" fill="none"><path id="share-Page-1" fill="#000" d="m48.438 54.199c-2.166 0-3.926-1.761-3.926-3.927s1.76-3.927 3.926-3.927c2.167 0 3.927 1.761 3.927 3.927s-1.76 3.927-3.927 3.927m-18.71-10.279c-2.167 0-3.927-1.76-3.927-3.927 0-2.166 1.76-3.927 3.927-3.927 2.166 0 3.926 1.761 3.926 3.927 0 2.167-1.767 3.927-3.926 3.927m18.71-18.119c2.167 0 3.927 1.76 3.927 3.927 0 2.166-1.76 3.926-3.927 3.926-2.166 0-3.926-1.76-3.926-3.926 0-2.167 1.767-3.927 3.926-3.927m0 18.757c-1.84 0-3.481 0.877-4.531 2.232l-8.791-4.91c0.206-0.591 0.319-1.229 0.319-1.887 0-0.664-0.113-1.295-0.325-1.893l8.784-4.904c1.043 1.362 2.691 2.246 4.538 2.246 3.149 0 5.721-2.565 5.721-5.721s-2.565-5.721-5.721-5.721-5.721 2.565-5.721 5.721c0 0.664 0.113 1.302 0.325 1.894l-8.777 4.903c-1.043-1.369-2.691-2.246-4.538-2.246-3.149 0-5.721 2.565-5.721 5.721s2.572 5.721 5.728 5.721c1.847 0 3.494-0.883 4.544-2.252l8.785 4.91c-0.213 0.598-0.333 1.242-0.333 1.907 0 3.149 2.565 5.721 5.721 5.721s5.721-2.565 5.721-5.721-2.572-5.721-5.728-5.721"/></g></svg></svg>
